<svg width="82" height="69" viewBox="0 0 82 69" fill="none" xmlns="http://www.w3.org/2000/svg">
<g clip-path="url(#clip0_459_3058)">
<path d="M49.4244 9.20085C49.5102 9.19305 49.6037 9.18526 49.6973 9.17746C50.0481 9.15407 50.399 9.14628 50.7498 9.14628C51.1007 9.14628 51.4282 9.15407 51.7634 9.17746V6.30093C51.7634 3.37762 49.3854 1 46.4616 1H17.3096C14.378 1 12 3.37762 12 6.30093V63.6991C12 66.6224 14.378 69 17.3096 69H46.4616C49.3854 69 51.7634 66.6224 51.7634 63.6991V52.6841C51.4282 52.7074 51.0929 52.7152 50.7498 52.7152C50.3054 52.7152 49.861 52.6996 49.4244 52.6685V63.6991C49.4244 65.3361 48.0989 66.6614 46.4616 66.6614H17.3096C15.6723 66.6614 14.339 65.3361 14.339 63.6991V6.30093C14.339 4.66388 15.6723 3.33864 17.3096 3.33864H26.6657C26.6813 4.39883 27.5467 5.26413 28.6149 5.26413H35.5462C36.6143 5.26413 37.4798 4.39883 37.4876 3.33864H46.4616C48.0989 3.33864 49.4244 4.66388 49.4244 6.30093V9.20085Z" fill="white"/>
<path d="M34.977 65.1568H28.6071C27.9599 65.1568 27.4376 64.6345 27.4376 63.9875C27.4376 63.3405 27.9599 62.8182 28.6071 62.8182H34.977C35.6241 62.8182 36.1465 63.3405 36.1465 63.9875C36.1465 64.6345 35.6241 65.1568 34.977 65.1568Z" fill="#FECA30"/>
<path d="M50.7498 49.5971C40.4425 49.5971 32.0844 41.2403 32.0844 30.9347C32.0844 20.629 40.4425 12.2723 50.7498 12.2723" stroke="#FECA30" stroke-width="1.5" stroke-miterlimit="10"/>
<path d="M50.7498 49.5971C45.5962 49.5971 41.4171 41.2403 41.4171 30.9347C41.4171 20.629 45.5962 12.2723 50.7498 12.2723" stroke="#FECA30" stroke-width="1.5" stroke-miterlimit="10"/>
<path d="M50.7498 49.5971C50.7498 49.5971 50.7498 41.2403 50.7498 30.9347C50.7498 20.629 50.7498 12.2723 50.7498 12.2723" stroke="#FECA30" stroke-width="1.5" stroke-miterlimit="10"/>
<path d="M50.7498 49.5971C55.9035 49.5971 60.0825 41.2403 60.0825 30.9347C60.0825 20.629 55.9035 12.2723 50.7498 12.2723" stroke="#FECA30" stroke-width="1.5" stroke-miterlimit="10"/>
<path d="M50.7498 49.5971C61.0571 49.5971 69.4152 41.2403 69.4152 30.9347C69.4152 20.629 61.0571 12.2723 50.7498 12.2723" stroke="#FECA30" stroke-width="1.5" stroke-miterlimit="10"/>
<path d="M35.3357 20.403H66.2108" stroke="#FECA30" stroke-width="1.5" stroke-miterlimit="10"/>
<path d="M35.3357 41.4586H66.2108" stroke="#FECA30" stroke-width="1.5" stroke-miterlimit="10"/>
<path d="M69.462 30.9346H32.0844" stroke="#FECA30" stroke-width="1.5" stroke-miterlimit="10"/>
<path opacity="0.2" d="M50.7412 31L50.6837 50C40.4263 49.9708 32 41.4043 32 31C32 20.5957 40.4551 12 50.7316 12C50.8179 12 50.9041 12 51 12L50.7316 31H50.7412Z" fill="#FECA30"/>
</g>
<defs>
<clipPath id="clip0_459_3058">
<rect width="58" height="68" fill="white" transform="translate(12 1)"/>
</clipPath>
</defs>
</svg>
