<svg width="82" height="69" viewBox="0 0 82 69" fill="none" xmlns="http://www.w3.org/2000/svg">
<g clip-path="url(#clip0_459_3099)">
<rect opacity="0.2" x="22" y="32" width="18" height="24" rx="2" fill="#FFCC01"/>
<path d="M58 35.26V28.53C58 27.29 57.46 26.16 56.7 25.32L39.11 5.72C38.06 4.62 36.68 4 35.28 4H15.09C12.3 4 10 6.23 10 8.96V60.99C10 63.72 12.3 65.94 15.09 65.94H52.76C55.55 65.94 57.86 63.72 58 60.99V60.43H55.43V60.99C55.43 62.34 54.28 63.46 52.87 63.46H15.09C13.71 63.46 12.56 62.34 12.56 60.99V8.96C12.56 7.58 13.71 6.48 15.09 6.48H35.14C35.9 6.48 36.54 6.74 37.05 7.36L54.79 26.78C55.18 27.29 55.43 27.79 55.43 28.41V35.26H58Z" fill="white"/>
<path d="M39.73 28.02H21.74C19.71 28.02 18.05 29.65 18.05 31.62V56.28C18.05 58.25 19.71 59.86 21.74 59.86H39.73C41.78 59.86 43.44 58.25 43.44 56.28V31.74C43.55 29.65 41.89 28.02 39.73 28.02ZM31.45 30.5H35.9V36.46L33.11 39.17H31.45V30.5ZM34.88 42.15V46.37C34.77 47.36 33.98 48.23 32.97 48.23H28.63C27.62 48.23 26.72 47.36 26.72 46.37V42.15C26.72 41.17 27.62 40.29 28.63 40.29H32.97C33.98 40.29 34.88 41.17 34.88 42.15ZM25.71 30.5H30.15V39.17H28.49L25.71 36.46V30.5ZM20.58 31.62C20.58 31 21.09 30.5 21.74 30.5H24.41V36.94L27.11 39.56C26.21 40.04 25.45 41.03 25.45 42.15V43.64H20.58V31.62ZM24.55 57.52H21.74C21.09 57.52 20.58 56.9 20.58 56.28V44.88H25.56V46.37C25.56 47.47 26.21 48.46 27.23 49.08L24.55 51.7V57.52ZM30.15 57.38H25.71V52.17L28.49 49.47H30.15V57.38ZM35.9 57.52H31.45V49.58H33.11L35.9 52.31V57.52ZM41.0201 56.28C41.0201 56.9 40.51 57.52 39.73 57.52H37.05V51.7L34.38 49.08C35.39 48.6 36.0401 47.61 36.0401 46.37V44.88H41.0201V56.28ZM41.0201 43.76H36.0401V42.26C36.0401 41.17 35.39 40.18 34.38 39.67L37.05 37.08V30.64H39.73C40.51 30.5 41.0201 31 41.0201 31.74V43.76Z" fill="white"/>
<path d="M70.4899 50.05C69.0999 51.68 66.9799 53.36 64.5199 54.78C62.0599 56.2 59.5399 57.2 57.4399 57.58C56.8199 57.69 56.2399 57.75 55.7299 57.75C54.4199 57.75 53.4999 57.38 53.0799 56.65C52.6799 55.96 52.2799 55.26 51.8799 54.57L51.3699 53.68C50.7899 52.67 51.2799 51.17 52.7499 49.44C54.1399 47.81 56.2599 46.13 58.7199 44.71C61.1799 43.29 63.6999 42.3 65.7999 41.91C68.0299 41.5 69.5799 41.83 70.1599 42.84L71.8799 45.82C72.4599 46.82 71.9699 48.33 70.4999 50.05H70.4899ZM51.9899 53.32C52.3999 54.03 53.7199 54.24 55.5999 53.9C57.6299 53.53 60.0599 52.56 62.4599 51.18C64.8499 49.8 66.8999 48.17 68.2399 46.6C69.4799 45.14 69.9499 43.9 69.5399 43.19C69.1299 42.48 67.8099 42.27 65.9299 42.61C63.8999 42.98 61.4699 43.95 59.0799 45.33C56.6899 46.71 54.6399 48.34 53.2999 49.91C52.0599 51.37 51.5899 52.61 51.9999 53.32H51.9899ZM71.2499 46.17L70.2899 44.5C70.0799 45.26 69.5799 46.13 68.7799 47.07C67.3899 48.7 65.2699 50.38 62.8099 51.8C60.3499 53.22 57.8299 54.22 55.7299 54.6C55.1099 54.71 54.5299 54.77 54.0199 54.77C53.5399 54.77 53.1099 54.72 52.7399 54.62C53.0599 55.18 53.3799 55.73 53.6999 56.29C54.0099 56.83 54.8499 57.08 56.0499 57.02L55.5099 56.08L56.1299 55.72L56.8299 56.94C56.9799 56.92 57.1399 56.89 57.2999 56.86C57.9599 56.74 58.6599 56.56 59.3799 56.32L58.7699 55.26L59.3899 54.9L60.0699 56.08C60.8299 55.8 61.6099 55.46 62.4099 55.08L61.7799 53.99L62.3999 53.63L63.0499 54.76C63.4199 54.57 63.7899 54.36 64.1599 54.15C64.5299 53.94 64.8899 53.72 65.2399 53.5L64.5899 52.37L65.2099 52.01L65.8399 53.1C66.5699 52.61 67.2499 52.1 67.8799 51.58L67.1999 50.4L67.8199 50.04L68.4299 51.1C68.9999 50.59 69.5099 50.07 69.9399 49.56C70.0499 49.43 70.1499 49.31 70.2399 49.19L69.5399 47.97L70.1599 47.61L70.6999 48.55C71.3599 47.54 71.5499 46.69 71.2399 46.15L71.2499 46.17ZM53.2199 52.61C52.8499 51.97 53.3499 51.01 54.6999 49.73C55.8999 48.6 57.6299 47.35 59.5799 46.23C61.5299 45.1 63.4799 44.22 65.0599 43.75C66.8399 43.22 67.9199 43.28 68.2899 43.91C68.6599 44.55 68.1599 45.52 66.8099 46.79C65.6099 47.92 63.8799 49.17 61.9299 50.29C59.9799 51.41 58.0299 52.3 56.4499 52.77C55.6399 53.01 54.9799 53.13 54.4599 53.13C53.8299 53.13 53.4199 52.96 53.2199 52.61ZM53.8399 52.25C53.9299 52.41 54.5599 52.59 56.2499 52.08C57.7799 51.63 59.6699 50.77 61.5699 49.67C63.4799 48.57 65.1599 47.36 66.3199 46.27C67.5999 45.06 67.7599 44.43 67.6699 44.27C67.5799 44.11 66.9499 43.93 65.2599 44.44C63.7299 44.89 61.8399 45.75 59.9399 46.85C58.0299 47.95 56.3499 49.16 55.1899 50.25C53.9099 51.46 53.7499 52.09 53.8399 52.25Z" fill="#FECA30"/>
<path d="M47.26 44.9C46.02 43.32 45.65 41.98 46.2 41.05L46.82 39.97C47.18 39.34 47.55 38.71 47.91 38.08C48.49 37.07 50.04 36.75 52.27 37.15C54.38 37.54 56.89 38.53 59.35 39.95C60.53 40.63 61.63 41.37 62.62 42.14L62.18 42.7C61.22 41.95 60.15 41.23 59 40.56C56.61 39.18 54.17 38.21 52.15 37.84C50.27 37.5 48.95 37.71 48.54 38.42C47.75 39.79 50.29 43.25 55.33 46.24L54.97 46.86C52.59 45.45 50.55 43.8 49.22 42.21C48.47 41.31 47.99 40.47 47.79 39.73C47.68 39.93 47.56 40.12 47.45 40.32L46.82 41.4C46.51 41.93 46.71 42.79 47.36 43.8L47.9 42.86L48.52 43.22L47.82 44.44C47.82 44.44 47.82 44.44 47.82 44.45C48.3 45.07 48.92 45.71 49.63 46.34L50.24 45.28L50.86 45.64L50.18 46.82C50.94 47.46 51.8 48.08 52.73 48.68L52.34 49.28C50.2 47.91 48.4 46.35 47.26 44.89V44.9Z" fill="#FECA30"/>
<path d="M52.8 39.67C54.33 40.12 56.22 40.98 58.12 42.08C58.91 42.54 59.67 43.02 60.38 43.5L60.79 42.91C60.07 42.41 59.29 41.92 58.49 41.46C56.54 40.33 54.59 39.45 53.01 38.98C51.23 38.45 50.15 38.51 49.78 39.14C49.41 39.78 49.91 40.74 51.26 42.02C52.46 43.15 54.19 44.4 56.15 45.53C56.28 45.6 56.41 45.68 56.53 45.75L56.88 45.13C56.75 45.06 56.63 44.99 56.5 44.92C54.59 43.82 52.91 42.61 51.75 41.51C50.47 40.3 50.31 39.67 50.4 39.51C50.49 39.35 51.12 39.17 52.81 39.68L52.8 39.67Z" fill="#FECA30"/>
</g>
<defs>
<clipPath id="clip0_459_3099">
<rect width="62.11" height="61.94" fill="white" transform="translate(10 4)"/>
</clipPath>
</defs>
</svg>
