<svg width="60" height="60" viewBox="0 0 60 60" fill="none" xmlns="http://www.w3.org/2000/svg">
<rect width="60" height="60" rx="30" fill="#292929"/>
<path d="M43.122 30.1684V26.258C43.122 25.5361 42.8075 24.8824 42.3641 24.393L32.0842 12.9987C31.4714 12.361 30.6652 12 29.8468 12H18.0552C16.4225 12 15.0801 13.2955 15.0801 14.8837V45.1243C15.0801 46.7126 16.4225 48 18.0552 48H40.0622C41.6909 48 43.0413 46.7086 43.122 45.1243V44.7995H41.6223V45.1243C41.6223 45.9104 40.9491 46.5602 40.1267 46.5602H18.0552C17.2489 46.5602 16.5757 45.9104 16.5757 45.1243V14.8837C16.5757 14.0816 17.2489 13.4439 18.0552 13.4439H29.7702C30.2137 13.4439 30.5886 13.5963 30.8869 13.9572L41.2514 25.2433C41.4812 25.5401 41.6263 25.8289 41.6263 26.1898V30.1725H43.126L43.122 30.1684Z" fill="white"/>
<path d="M32.4477 25.9612H21.938C20.7528 25.9612 19.7812 26.9077 19.7812 28.0548V42.389C19.7812 43.532 20.7528 44.4705 21.938 44.4705H32.4477C33.645 44.4705 34.6165 43.536 34.6165 42.389V28.127C34.681 26.9117 33.7095 25.9652 32.4477 25.9652V25.9612ZM27.6101 27.401H30.2103V30.8663L28.5816 32.4425H27.6101V27.405V27.401ZM29.6137 34.1711V36.6256C29.5491 37.1992 29.0896 37.7085 28.497 37.7085H25.9613C25.3727 37.7085 24.8446 37.2032 24.8446 36.6256V34.1711C24.8446 33.6016 25.3687 33.0882 25.9613 33.0882H28.497C29.0855 33.0882 29.6137 33.6016 29.6137 34.1711ZM24.2601 27.401H26.8522V32.4385H25.8806L24.256 30.8623V27.397L24.2601 27.401ZM21.2607 28.0548C21.2607 27.6938 21.5591 27.405 21.938 27.405H23.4981V31.147L25.0744 32.6711C24.5503 32.9518 24.1028 33.5254 24.1028 34.1751V35.0414H21.2567V28.0548H21.2607ZM23.5788 43.1069H21.938C21.5591 43.1069 21.2607 42.7459 21.2607 42.385V35.7593H24.1714V36.6256C24.1714 37.2633 24.5503 37.8409 25.1469 38.2018L23.5828 39.7259V43.1069H23.5788ZM26.8522 43.0267H24.2601V39.9986L25.8847 38.4304H26.8562V43.0267H26.8522ZM30.2103 43.1069H27.6101V38.4906H28.5816L30.2103 40.0788V43.1069ZM33.2015 42.385C33.2015 42.7459 32.9032 43.1069 32.4477 43.1069H30.8835V39.7259L29.3234 38.2018C29.912 37.9211 30.2949 37.3475 30.2949 36.6256V35.7593H33.2056V42.385H33.2015ZM33.2015 35.1096H30.2909V34.2393C30.2909 33.6056 29.912 33.032 29.3194 32.7352L30.8795 31.2312V27.4893H32.4436C32.8992 27.409 33.1975 27.6978 33.1975 28.127V35.1136L33.2015 35.1096Z" fill="white"/>
<path d="M48.435 38.5789C48.2939 38.6952 48.2415 38.8878 48.306 39.0602L48.7656 40.2394C48.8825 40.5402 48.689 40.869 48.3705 40.9212L47.1168 41.1137C46.9314 41.1418 46.7903 41.2821 46.762 41.4666L46.5645 42.714C46.5161 43.0348 46.1856 43.2233 45.8832 43.107L44.698 42.6498C44.5247 42.5856 44.3271 42.6378 44.2142 42.7821L43.416 43.7648C43.2145 44.0174 42.8275 44.0174 42.6259 43.7648L41.8317 42.7821C41.7148 42.6378 41.5173 42.5856 41.3439 42.6498L40.1587 43.107C40.0378 43.1551 39.9088 43.1511 39.7959 43.107C39.7435 43.091 39.6951 43.0589 39.6508 43.0228C39.5621 42.9506 39.4976 42.8423 39.4774 42.714L39.2839 41.4666C39.2517 41.2821 39.1106 41.1418 38.9292 41.1137L37.6714 40.9212C37.3529 40.869 37.1594 40.5402 37.2763 40.2394L37.7359 39.0602C37.8044 38.8878 37.752 38.6952 37.6069 38.5789L36.6152 37.7848C36.3652 37.5843 36.3652 37.2033 36.6152 36.9987L37.6069 36.2086C37.752 36.0923 37.8044 35.8958 37.7359 35.7273L37.2763 34.5482C37.1594 34.2474 37.3529 33.9145 37.6714 33.8664L38.9292 33.6739C39.1106 33.6458 39.2517 33.5014 39.2839 33.3209L39.4774 32.0696C39.5258 31.7527 39.8604 31.5602 40.1587 31.6765L41.3439 32.1337C41.5173 32.2019 41.7148 32.1498 41.8317 32.0054L42.6259 31.0188C42.8275 30.7701 43.2145 30.7701 43.416 31.0188L44.2142 32.0054C44.3271 32.1498 44.5247 32.2019 44.698 32.1337L45.8832 31.6765C46.0324 31.6204 46.1896 31.6364 46.3146 31.7086L46.367 31.7447C46.4677 31.8169 46.5443 31.9332 46.5645 32.0696L46.762 33.3209C46.7903 33.5014 46.9314 33.6458 47.1168 33.6739L48.3705 33.8664C48.689 33.9145 48.8825 34.2474 48.7656 34.5482L48.306 35.7273C48.2415 35.8958 48.2939 36.0923 48.435 36.2086L49.4267 36.9987C49.6807 37.2033 49.6807 37.5843 49.4267 37.7848L48.435 38.5789Z" stroke="#FECA30" stroke-width="1.2" stroke-miterlimit="10"/>
<path opacity="0.2" d="M46.367 31.7447C46.367 31.7447 43.283 34.3436 43.283 37.3918C43.283 40.4399 39.7959 43.107 39.7959 43.107L39.6508 43.0228C39.5621 42.9506 39.4976 42.8423 39.4774 42.714L39.2839 41.4666C39.2517 41.2821 39.1106 41.1418 38.9292 41.1137L37.6714 40.9212C37.3529 40.869 37.1594 40.5402 37.2763 40.2394L37.7359 39.0602C37.8044 38.8878 37.752 38.6952 37.6069 38.5789L36.6152 37.7848C36.3652 37.5843 36.3652 37.2033 36.6152 36.9987L37.6069 36.2086C37.752 36.0923 37.8044 35.8958 37.7359 35.7273L37.2763 34.5482C37.1594 34.2474 37.3529 33.9145 37.6714 33.8664L38.9292 33.6739C39.1106 33.6458 39.2517 33.5014 39.2839 33.3209L39.4774 32.0696C39.5258 31.7527 39.8604 31.5602 40.1587 31.6765L41.3439 32.1337C41.5173 32.2019 41.7148 32.1498 41.8317 32.0054L42.6259 31.0188C42.8275 30.7701 43.2145 30.7701 43.416 31.0188L44.2142 32.0054C44.3271 32.1498 44.5247 32.2019 44.698 32.1337L45.8832 31.6765C46.0324 31.6204 46.1896 31.6364 46.3146 31.7086L46.367 31.7447Z" fill="#FECA30"/>
<path d="M40.1787 37.0587C39.9449 36.8181 39.832 36.5052 39.832 36.1282C39.832 35.7512 39.9489 35.4344 40.1787 35.1857C40.4125 34.9371 40.7189 34.8087 41.0979 34.8087C41.4768 34.8087 41.7872 34.9331 42.017 35.1857C42.2508 35.4344 42.3637 35.7512 42.3637 36.1282C42.3637 36.5052 42.2468 36.8181 42.017 37.0587C41.7832 37.2994 41.4768 37.4197 41.0979 37.4197C40.7189 37.4197 40.4085 37.2994 40.1787 37.0587ZM41.3599 36.3568C41.4244 36.3007 41.4567 36.2245 41.4567 36.1242C41.4567 36.0159 41.4244 35.9317 41.3599 35.8716C41.2954 35.8154 41.2107 35.7833 41.0979 35.7833C40.985 35.7833 40.9003 35.8114 40.8358 35.8716C40.7713 35.9277 40.7391 36.0119 40.7391 36.1242C40.7391 36.2245 40.7713 36.3007 40.8358 36.3568C40.9003 36.413 40.985 36.4411 41.0979 36.4411C41.2107 36.4411 41.2954 36.413 41.3599 36.3568ZM45.2542 35.286L41.8396 40.8368L40.8116 40.167L44.1294 34.5601L45.2582 35.286H45.2542ZM44.0407 40.0948C43.8069 39.8542 43.694 39.5413 43.694 39.1643C43.694 38.7873 43.8109 38.4705 44.0407 38.2178C44.2745 37.9692 44.5809 37.8408 44.9599 37.8408C45.3388 37.8408 45.6492 37.9651 45.879 38.2178C46.1128 38.4665 46.2257 38.7833 46.2257 39.1643C46.2257 39.5454 46.1088 39.8542 45.879 40.0948C45.6452 40.3355 45.3388 40.4598 44.9599 40.4598C44.5809 40.4598 44.2705 40.3395 44.0407 40.0948ZM45.2219 39.3929C45.2864 39.3368 45.3187 39.2606 45.3187 39.1603C45.3187 39.052 45.2864 38.9678 45.2219 38.9077C45.1574 38.8515 45.0728 38.8194 44.9599 38.8194C44.847 38.8194 44.7623 38.8475 44.6978 38.9077C44.6333 38.9638 44.6011 39.048 44.6011 39.1603C44.6011 39.2606 44.6333 39.3368 44.6978 39.3929C44.7623 39.4491 44.847 39.4772 44.9599 39.4772C45.0728 39.4772 45.1574 39.4491 45.2219 39.3929Z" fill="#FECA30"/>
</svg>
