<svg width="82" height="69" viewBox="0 0 82 69" fill="none" xmlns="http://www.w3.org/2000/svg">
<g clip-path="url(#clip0_459_3180)">
<path opacity="0.2" d="M25.2158 7.81433H57.7916C64.7666 7.81433 70.4241 13.4759 70.4241 20.4559H12.5833C12.5833 13.4759 18.2408 7.81433 25.2158 7.81433Z" fill="#FECA30"/>
<path d="M41 17.6898C39.7729 17.6898 38.7913 18.6851 38.7913 19.9001V41.745C38.7913 42.973 39.7858 43.9553 41 43.9553C42.2142 43.9553 43.2088 42.96 43.2088 41.745V19.9001C43.2088 18.6721 42.2142 17.6898 41 17.6898Z" fill="#FECA30"/>
<path d="M33.25 24.6181C32.0229 24.6181 31.0413 25.6134 31.0413 26.8284V34.7908C31.0413 36.0188 32.0358 37.0141 33.25 37.0141C34.4642 37.0141 35.4588 36.0188 35.4588 34.7908V26.8284C35.4588 25.6005 34.4642 24.6181 33.25 24.6181Z" fill="#FECA30"/>
<path d="M27.0758 29.2456C26.2363 28.4312 24.7508 28.4312 23.9371 29.2456C23.7433 29.4395 23.5883 29.6851 23.4721 29.9824C23.3558 30.2538 23.2913 30.5382 23.2913 30.8225C23.2913 31.4042 23.5367 31.973 23.9371 32.3995C24.3633 32.8002 24.9446 33.0458 25.5129 33.0458C26.0942 33.0458 26.6625 32.8002 27.0888 32.3995C27.4892 31.973 27.7346 31.4042 27.7346 30.8225C27.7346 30.5382 27.67 30.2409 27.5538 29.9824C27.4375 29.698 27.2825 29.4524 27.0888 29.2456H27.0758Z" fill="#FECA30"/>
<path d="M48.75 24.6181C47.5229 24.6181 46.5413 25.6134 46.5413 26.8284V34.7908C46.5413 36.0188 47.5358 37.0141 48.75 37.0141C49.9642 37.0141 50.9588 36.0188 50.9588 34.7908V26.8284C50.9588 25.6005 49.9642 24.6181 48.75 24.6181Z" fill="white"/>
<path d="M57.74 28.9871C56.8617 28.3925 55.6862 28.5218 54.9242 29.2585C54.7304 29.4524 54.5754 29.698 54.4592 29.9953C54.33 30.2668 54.2783 30.5511 54.2783 30.8355C54.2783 31.4172 54.5237 31.9859 54.9242 32.4125C55.7896 33.2656 57.2104 33.2527 58.0629 32.4125C58.4633 31.9859 58.7087 31.4172 58.7087 30.8355C58.7087 30.2539 58.4633 29.6851 58.0629 29.2585C57.9467 29.1681 57.8433 29.0647 57.7271 28.9871H57.74Z" fill="white"/>
<path d="M56.5 7H25.5C16.9492 7 10 13.9542 10 22.5112V39.1081C10 45.1575 13.5262 50.6122 18.9254 53.1328V57.5664C18.9254 59.1821 19.8038 60.6686 21.2117 61.4442C21.8833 61.819 22.6196 62 23.3558 62C24.1696 62 24.9962 61.7673 25.7067 61.3149L36.3629 54.6193H56.5C65.0508 54.6193 72 47.6651 72 39.1081V22.5112C72 13.9542 65.0508 7 56.5 7ZM67.5696 39.1081C67.5696 45.2221 62.5967 50.1857 56.5 50.1857H35.73C35.3167 50.1857 34.9033 50.302 34.5546 50.5217L23.3558 57.5664V51.6463C23.3558 50.7027 22.7617 49.8625 21.8704 49.5523C17.4271 48.0141 14.4304 43.8132 14.4304 39.1081V22.5112C14.4304 16.3972 19.3904 11.4336 25.5 11.4336H56.5C62.6096 11.4336 67.5696 16.4101 67.5696 22.5112V39.1081Z" fill="white"/>
</g>
<defs>
<clipPath id="clip0_459_3180">
<rect width="62" height="55" fill="white" transform="translate(10 7)"/>
</clipPath>
</defs>
</svg>
