<svg width="82" height="69" viewBox="0 0 82 69" fill="none" xmlns="http://www.w3.org/2000/svg">
<g clip-path="url(#clip0_459_2975)">
<path d="M21.5333 9.79998C21.5333 4.53331 29.0666 0.333313 38.3999 0.333313C47.7333 0.333313 55.2666 4.53331 55.2666 9.79998C55.2666 15 47.7333 19.2666 38.3999 19.2666C36.2666 19.2666 34.1999 19.0666 32.3333 18.6666C31.9999 18.6 31.6666 18.6666 31.4666 18.9333L28.3999 22C27.8666 22.5333 26.9333 22.2666 26.7999 21.4666L25.9999 16.6666C25.9333 16.4 25.7999 16.2 25.5999 16C23.0666 14.2666 21.5333 12.1333 21.5333 9.79998Z" fill="#FECA30"/>
<path d="M30.6666 5.66663H44.9333" stroke="white" stroke-width="2" stroke-miterlimit="10" stroke-linecap="round"/>
<path d="M30.6666 9.39996H44.9333" stroke="white" stroke-width="2" stroke-miterlimit="10" stroke-linecap="round"/>
<path d="M30.6666 13.0667H44.9333" stroke="white" stroke-width="2" stroke-miterlimit="10" stroke-linecap="round"/>
<path d="M73.1333 10.3333C73.1333 11.8 72.2 13.1333 70.6 14.2C70.4666 14.2666 70.3333 14.4 70.3333 14.6L69.8 17.6C69.7333 18.0666 69.1333 18.2666 68.8 17.9333L66.9333 16C66.8 15.8666 66.6 15.8 66.4 15.8666C65.2 16.1333 63.9333 16.2666 62.6 16.2666C60.2 16.2666 57.9333 15.8 56.1333 15.0666C57.3333 13.4666 58 11.7333 58 9.79996C58 8.26663 57.5333 6.7333 56.7333 5.39996C58.3333 4.7333 60.3333 4.39996 62.5333 4.39996C68.4 4.39996 73.1333 7.06663 73.1333 10.3333Z" fill="#FECA30" fill-opacity="0.5"/>
<path d="M5.39995 11.6666C4.53329 12.3333 3.79995 13.1333 3.26662 14.1333C0.999954 18.1333 -2.20005 29.1333 13.3333 49.0666C28.4666 68.6 39.6666 68.7333 44.2 67.6666C45.3333 67.4 46.4 66.8666 47.3333 66.1333L51.7999 62.6666C52.8666 61.8666 53 60.3333 52.2 59.3333L43.4 47.8C42.6 46.7333 41.0666 46.6 40.0666 47.4L34.7333 51.5333C34.7333 51.5333 31.7333 54.4666 22.2 42.1333C13.1333 30.4 16.6 27.9333 16.6 27.9333L21.8 23.8666C22.8666 23.0666 23 21.5333 22.2 20.5333L13.0666 8.79997C12.2666 7.7333 10.8 7.59997 9.73329 8.39997L5.39995 11.6666Z" stroke="white" stroke-width="3" stroke-miterlimit="10"/>
<path d="M78.1333 17.1333C78.5999 17.4667 78.9999 17.9333 79.2666 18.4667C80.4666 20.6 82.1999 26.4667 73.8666 37.1333C65.7999 47.5333 59.7999 47.6667 57.3999 47.0667C56.7999 46.9333 56.1999 46.6667 55.7333 46.2667L53.3333 44.4C52.7999 43.9333 52.6666 43.1333 53.1333 42.6L57.8666 36.4667C58.3333 35.9333 59.1333 35.8 59.6666 36.2667L62.5333 38.4667C62.5333 38.4667 64.1333 40.0667 69.2666 33.4667C74.1333 27.2 72.2666 25.8667 72.2666 25.8667L69.4666 23.6667C68.9333 23.2 68.7999 22.4 69.2666 21.8667L74.1333 15.6C74.5333 15.0667 75.3333 14.9333 75.9333 15.4L78.1333 17.1333Z" stroke="white" stroke-width="3" stroke-miterlimit="10"/>
<rect x="9" y="11.9269" width="2.56054" height="13.3333" rx="1" transform="rotate(-38.4883 9 11.9269)" fill="white"/>
<rect x="39.6666" y="51.2602" width="2.56054" height="13.3333" rx="1" transform="rotate(-38.4883 39.6666 51.2602)" fill="white"/>
</g>
<defs>
<clipPath id="clip0_459_2975">
<rect width="81" height="68.6667" fill="white" transform="translate(0.333313 0.333313)"/>
</clipPath>
</defs>
</svg>
