<svg width="98" height="98" viewBox="0 0 98 98" fill="none" xmlns="http://www.w3.org/2000/svg">
<g clip-path="url(#clip0_867_2991)">
<path d="M67.19 5H29.81C26.05 5 23 8.05 23 11.81V85.43C23 89.18 26.05 92.24 29.81 92.24H67.2C70.95 92.24 74.01 89.19 74.01 85.43V11.81C74.01 8.06 70.96 5 67.2 5H67.19ZM71 85.43C71 87.53 69.29 89.24 67.19 89.24H29.81C27.71 89.24 26 87.53 26 85.43V11.81C26 9.71 27.71 8 29.81 8H41.81C41.83 9.37 42.94 10.47 44.31 10.47H53.2C54.57 10.47 55.68 9.37 55.7 8H67.2C69.3 8 71.01 9.71 71.01 11.81V85.43H71Z" fill="white"/>
<path d="M52.47 87.31H44.3C43.47 87.31 42.8 86.64 42.8 85.81C42.8 84.98 43.47 84.31 44.3 84.31H52.47C53.3 84.31 53.97 84.98 53.97 85.81C53.97 86.64 53.3 87.31 52.47 87.31Z" fill="#FECA30"/>
<g opacity="0.2">
<path d="M29.42 76.05V13.25C29.42 12.42 30.09 11.75 30.92 11.75H63.51C64.63 11.75 65.36 12.94 64.84 13.94L32.25 76.74C31.53 78.13 29.42 77.62 29.42 76.05Z" fill="#FECA30"/>
</g>
</g>
<defs>
<clipPath id="clip0_867_2991">
<rect width="51" height="87.24" fill="white" transform="translate(23 5)"/>
</clipPath>
</defs>
</svg>
