<svg width="191" height="60" viewBox="0 0 191 60" fill="none" xmlns="http://www.w3.org/2000/svg">
<g clip-path="url(#clip0_433_3075)">
<path d="M50.8439 98.7043C14.2229 98.7043 -15.5781 82.2389 -15.5781 62.0001C-15.5781 41.7612 14.2229 25.2959 50.8439 25.2959C87.465 25.2959 117.266 41.7612 117.266 62.0001C117.266 82.2389 87.465 98.7043 50.8439 98.7043ZM50.8439 25.5701C14.3647 25.5701 -15.3053 41.9148 -15.3053 62.0001C-15.3053 82.0854 14.3647 98.43 50.8439 98.43C87.3231 98.43 116.993 82.0854 116.993 62.0001C116.993 41.9148 87.3231 25.5701 50.8439 25.5701Z" fill="#FECA30"/>
<path d="M54.9364 102.324C14.758 102.324 -17.9238 84.235 -17.9238 62.0107C-17.9238 39.7863 14.758 21.6865 54.9364 21.6865C95.1148 21.6865 127.797 39.7753 127.797 61.9997C127.797 84.224 95.1148 102.313 54.9364 102.313V102.324ZM54.9364 22.235C15.0635 22.235 -17.3782 40.0715 -17.3782 61.9997C-17.3782 83.9279 15.0635 101.764 54.9364 101.764C94.8092 101.764 127.251 83.9279 127.251 61.9997C127.251 40.0715 94.8092 22.235 54.9364 22.235Z" fill="#FECA30"/>
<path d="M59.0288 105.933C15.304 105.933 -20.2695 86.2203 -20.2695 61.9995C-20.2695 37.7787 15.304 18.0664 59.0288 18.0664C102.754 18.0664 138.327 37.7787 138.327 61.9995C138.327 86.2203 102.754 105.933 59.0288 105.933ZM59.0288 18.8891C15.7514 18.8891 -19.4511 38.2285 -19.4511 61.9995C-19.4511 85.7706 15.7514 105.11 59.0288 105.11C102.306 105.11 137.509 85.7706 137.509 61.9995C137.509 38.2285 102.306 18.8891 59.0288 18.8891Z" fill="#FECA30"/>
<path d="M63.1322 109.553C15.85 109.553 -22.6152 88.2284 -22.6152 62.0111C-22.6152 35.7938 15.85 14.458 63.1322 14.458C110.414 14.458 148.88 35.7829 148.88 62.0001C148.88 88.2174 110.414 109.542 63.1322 109.542V109.553ZM63.1322 15.555C16.4501 15.555 -21.524 36.3862 -21.524 62.0001C-21.524 87.6141 16.4501 108.445 63.1322 108.445C109.814 108.445 147.788 87.6031 147.788 62.0001C147.788 36.3971 109.803 15.555 63.1322 15.555Z" fill="#FECA30"/>
<path d="M67.2246 113.162C16.396 113.162 -24.9609 90.2137 -24.9609 62C-24.9609 33.7862 16.396 10.8379 67.2246 10.8379C118.053 10.8379 159.41 33.7862 159.41 62C159.41 90.2137 118.053 113.162 67.2246 113.162ZM67.2246 12.2091C17.1489 12.2091 -23.5969 34.5541 -23.5969 62C-23.5969 89.4458 17.1489 111.791 67.2246 111.791C117.3 111.791 158.046 89.4568 158.046 62C158.046 34.5431 117.3 12.2091 67.2246 12.2091Z" fill="#FECA30"/>
<path d="M71.3151 116.771C16.94 116.771 -27.3086 92.1988 -27.3086 61.9996C-27.3086 31.8003 16.9291 7.22852 71.3151 7.22852C125.701 7.22852 169.939 31.8003 169.939 61.9996C169.939 92.1988 125.701 116.771 71.3151 116.771ZM71.3151 8.87395C17.8348 8.87395 -25.6718 32.7108 -25.6718 61.9996C-25.6718 91.2883 17.8348 115.125 71.3151 115.125C124.795 115.125 168.302 91.2883 168.302 61.9996C168.302 32.7108 124.795 8.87395 71.3151 8.87395Z" fill="#FECA30"/>
<path d="M75.4075 120.391C17.4751 120.391 -29.6543 94.1961 -29.6543 62.0004C-29.6543 29.8047 17.4751 3.60938 75.4075 3.60938C133.34 3.60938 180.469 29.8047 180.469 62.0004C180.469 94.1961 133.34 120.391 75.4075 120.391ZM75.4075 5.52905C18.5336 5.52905 -27.7447 30.8688 -27.7447 62.0004C-27.7447 93.132 18.5336 118.472 75.4075 118.472C132.281 118.472 178.56 93.143 178.56 62.0004C178.56 30.8578 132.281 5.52905 75.4075 5.52905Z" fill="#FECA30"/>
<path d="M79.5 124C18.0211 124 -32 96.1921 -32 62C-32 27.8079 18.0211 0 79.5 0C140.979 0 191 27.8188 191 62C191 96.1812 140.979 124 79.5 124ZM79.5 2.19391C19.2215 2.19391 -29.8176 29.0255 -29.8176 62C-29.8176 94.9745 19.2215 121.806 79.5 121.806C139.779 121.806 188.818 94.9745 188.818 62C188.818 29.0255 139.779 2.19391 79.5 2.19391Z" fill="#FECA30"/>
</g>
<defs>
<clipPath id="clip0_433_3075">
<rect width="223" height="124" fill="white" transform="translate(-32)"/>
</clipPath>
</defs>
</svg>
