<svg width="99" height="98" viewBox="0 0 99 98" fill="none" xmlns="http://www.w3.org/2000/svg">
<path d="M72.2551 59C71.3743 59 70.7871 58.4242 70.7871 57.5606V43.3106H66.383C65.3553 43.3106 64.3277 42.7348 63.8873 41.8712C63.4469 41.0076 63.3001 39.8561 63.8873 38.9924L73.5764 22.4394C74.1636 21.5758 75.0444 21 76.2188 21C77.2465 21 78.2741 21.5758 78.8613 22.4394L84.2931 31.7955C84.7335 32.5152 84.4399 33.3788 83.7059 33.8106C82.9718 34.2424 82.091 33.9545 81.6506 33.2348L76.2188 23.8788L74.7508 23.1591L76.072 23.8788L66.383 40.4318H70.7871C72.4019 40.4318 73.7232 41.7273 73.7232 43.3106V57.5606C73.7232 58.2803 72.9892 59 72.2551 59Z" fill="#FFCC01"/>
<path d="M48 21C40.4413 21 33.1922 24.0027 27.8475 29.3475C22.5027 34.6922 19.5 41.9413 19.5 49.5C19.5 57.0587 22.5027 64.3078 27.8475 69.6525C33.1922 74.9973 40.4413 78 48 78L48 49.5L48 21Z" fill="#FFCC01" fill-opacity="0.2"/>
<path d="M69.0288 77.1L67.7205 74.8C63.7957 77.675 59.1441 79.8313 54.0564 80.6937C56.3822 77.675 58.1266 72.6437 59.4348 66.8937H63.3596C63.2143 65.8875 63.6504 64.7375 64.5226 64.0187H60.0163C60.7431 59.85 61.0338 55.3937 61.1792 50.9375H69.7556V48.0625H61.1792C61.1792 43.6063 60.7431 39.15 60.0163 34.9812H65.104L66.703 32.1062H59.4348C58.2719 26.3562 56.5276 21.325 54.0564 18.3062C60.1617 19.3125 65.6855 22.1875 70.0464 26.2125L71.5 23.7688C65.3947 18.3062 57.2544 15 48.3872 15C29.1992 15 13.5 30.525 13.5 49.5C13.5 68.475 29.1992 84 48.3872 84C56.0915 84 63.2143 81.5563 69.0288 77.1C69.0288 77.2438 69.0288 77.2438 69.0288 77.1ZM56.9637 64.0187H39.8108C39.2293 60.1375 38.7932 55.6813 38.6479 50.9375H58.1266C57.9812 55.825 57.5451 60.1375 56.9637 64.0187ZM58.1266 48.0625H38.6479C38.6479 43.3188 39.084 38.8625 39.8108 34.9812H56.9637C57.5451 38.8625 57.9812 43.175 58.1266 48.0625ZM48.3872 17.875C51.2945 17.875 54.4925 23.3375 56.3822 32.1062H40.3922C42.282 23.1937 45.4799 17.875 48.3872 17.875ZM42.718 18.3062C40.3922 21.325 38.6479 26.3562 37.3396 32.1062H21.6404C26.4373 24.9187 33.9962 19.8875 42.718 18.3062ZM19.896 34.9812H36.9035C36.1767 39.15 35.886 43.6063 35.7406 48.0625H16.4073C16.5526 43.3188 17.8609 38.8625 19.896 34.9812ZM16.4073 50.9375H35.886C35.886 55.3937 36.3221 59.85 37.0489 64.0187H19.896C17.8609 60.1375 16.5526 55.6813 16.4073 50.9375ZM21.6404 66.8937H37.485C38.6479 72.6437 40.3922 77.675 42.8634 80.6937C33.9962 79.1125 26.4373 74.0812 21.6404 66.8937ZM48.3872 81.125C45.4799 81.125 42.282 75.6625 40.3922 66.8937H56.5276C54.4925 75.8062 51.2945 81.125 48.3872 81.125Z" fill="white"/>
<path d="M72.7811 78C71.7535 78 70.7259 77.4242 70.1387 76.5606L64.7069 67.2045C64.2665 66.4848 64.5601 65.6212 65.2941 65.1894C66.0282 64.7576 66.909 65.0455 67.3494 65.7652L72.7811 75.1212L74.2492 75.8409L72.928 75.1212L82.617 58.5682H78.2129C76.5981 58.5682 75.2768 57.2727 75.2768 55.6894V41.4394C75.2768 40.5758 75.864 40 76.7449 40C77.6257 40 78.2129 40.5758 78.2129 41.4394V55.6894H82.617C83.6447 55.6894 84.6723 56.2652 85.1127 57.1288C85.5531 57.9924 85.6999 59.1439 85.1127 60.0076L75.4236 76.5606C74.8364 77.4242 73.9556 78 72.7811 78Z" fill="#FFCC01"/>
</svg>
